<?xml version="1.0" encoding="UTF-8"?><svg id="Layer_2" xmlns="http://www.w3.org/2000/svg" xmlns:xlink="http://www.w3.org/1999/xlink" viewBox="0 0 16 10.48"><defs><style>.cls-1{fill:url(#linear-gradient-5);}.cls-2{fill:url(#linear-gradient-4);}.cls-3{fill:url(#linear-gradient-3);}.cls-4{fill:url(#linear-gradient-2);}.cls-5{fill:url(#linear-gradient);}.cls-6{fill:#f9f6f4;}.cls-7{fill:#245902;}</style><linearGradient id="linear-gradient" x1="6.81" y1="11.03" x2="6.81" y2="1.81" gradientUnits="userSpaceOnUse"><stop offset="0" stop-color="#f9f6f4"/><stop offset=".03" stop-color="#e5eddc"/><stop offset=".1" stop-color="#b3d79e"/><stop offset=".18" stop-color="#73ba4f"/><stop offset=".23" stop-color="#66aa42"/><stop offset=".36" stop-color="#4e8d2b"/><stop offset=".49" stop-color="#3b7619"/><stop offset=".63" stop-color="#2e650c"/><stop offset=".79" stop-color="#265c04"/><stop offset="1" stop-color="#245902"/></linearGradient><linearGradient id="linear-gradient-2" x1=".69" y1="2" x2="15.09" y2="2" gradientUnits="userSpaceOnUse"><stop offset="0" stop-color="#f9f6f4"/><stop offset=".08" stop-color="#e5eddc"/><stop offset=".26" stop-color="#b3d79e"/><stop offset=".47" stop-color="#73ba4f"/></linearGradient><linearGradient id="linear-gradient-3" x1="2194.9" y1="30.73" x2="2199.56" y2="30.73" gradientTransform="translate(1811.73 14.72) rotate(-178.64) scale(.82 -1) skewX(-3.97)" gradientUnits="userSpaceOnUse"><stop offset="0" stop-color="#f9f6f4"/><stop offset=".1" stop-color="#e5eddc"/><stop offset=".33" stop-color="#b3d79e"/><stop offset=".59" stop-color="#73ba4f"/></linearGradient><linearGradient id="linear-gradient-4" x1="-413.69" y1="468.75" x2="-409.93" y2="464.72" gradientTransform="translate(285.43 -312.15) rotate(13.92) scale(.84 .79) skewX(21.71)" gradientUnits="userSpaceOnUse"><stop offset="0" stop-color="#f9f6f4"/><stop offset=".13" stop-color="#e5eddc"/><stop offset=".42" stop-color="#b3d79e"/><stop offset=".75" stop-color="#73ba4f"/></linearGradient><linearGradient id="linear-gradient-5" x1="16.23" y1="-.24" x2="15.66" y2=".57" gradientUnits="userSpaceOnUse"><stop offset="0" stop-color="#f9f6f4"/><stop offset=".22" stop-color="#dae8ce"/><stop offset=".72" stop-color="#8fc671"/><stop offset=".9" stop-color="#73ba4f"/></linearGradient></defs><g id="Layer_1-2"><path class="cls-5" d="M13.62,2.62s-.17,4.03-1.33,5.6c-1.16,1.57-2.06,1.77-2.06,1.77,0,0-1.32.49-3.7.49-2.16,0-2.32-.13-3.12-.41s-2.19-1.05-2.72-3.3S.13,3.71,0,2.62"/><ellipse class="cls-7" cx="6.81" cy="2.62" rx="6.81" ry="1.6"/><ellipse class="cls-6" cx="6.81" cy="2.61" rx="6.12" ry="1.11"/><path class="cls-4" d="M14.85.29c.53.18.92,3.56-8.05,3.42-3.69-.06-6.09-.53-6.12-1.11-.04-.75,2.42-1.78,6.12-.52C13.95,4.53,14.1.04,14.85.29Z"/><path class="cls-3" d="M11.22,2.76c.66-.11,1.02-.5.82-.65s-.76,0-1.23.19c-1.99.74-2.65.29-2.5.38.17.1,1.18.36,2.91.08Z"/><path class="cls-2" d="M13.46,1.82c.34-.29.32-.73.12-.79s-.45.25-.63.54c-.76,1.23-1.41,1.07-1.27,1.09.16.03.9-.08,1.78-.85Z"/><path class="cls-1" d="M15.97.62c-.05.15-.21.23-.36.18s-.24-.21-.19-.36.29-.48.44-.43.15.46.1.61Z"/></g></svg>