<svg width="67" height="80" viewBox="0 0 67 80" fill="none" xmlns="http://www.w3.org/2000/svg">
<path d="M49.5232 66.6571C50.9224 65.8197 54.2207 62.4403 54.4351 59.5693C54.6494 56.6983 46.6952 35.2556 42.9146 24.3996" stroke="#245902" stroke-width="2.62171" stroke-linecap="round"/>
<path d="M18.0583 66.6571C16.6592 65.8197 13.3608 62.4403 13.1465 59.5693C12.9321 56.6983 20.8864 35.2556 24.667 24.3996" stroke="#245902" stroke-width="2.62171" stroke-linecap="round"/>
<path d="M42.1806 66.6571C43.2093 65.8268 45.6345 62.4758 45.7921 59.629C45.9497 56.7822 40.8923 35.1642 38.1126 24.3996" stroke="#245902" stroke-width="2.62171" stroke-linecap="round"/>
<path d="M25.4009 66.6571C24.3722 65.8268 21.947 62.4758 21.7894 59.629C21.6318 56.7822 26.6892 35.1642 29.469 24.3996" stroke="#245902" stroke-width="2.62171" stroke-linecap="round"/>
<path d="M36.8922 66.6571C37.5125 65.8197 38.9749 62.4403 39.0699 59.5693C39.1649 56.6983 36.9073 35.2556 35.2312 24.3996" stroke="#245902" stroke-width="2.62171" stroke-linecap="round"/>
<path d="M30.6893 66.6571C30.069 65.8197 28.6067 62.4403 28.5117 59.5693C28.4166 56.6983 30.6742 35.2556 32.3503 24.3996" stroke="#245902" stroke-width="2.62171" stroke-linecap="round"/>
<path d="M44.1119 19.0483L43.8411 23.5177L23.1014 23.5177L22.8305 19.0483L44.1119 19.0483Z" stroke="#245902" stroke-width="2.62171"/>
<path d="M42.5671 17.5665L24.06 17.5665L24.06 2.45021L33.2086 1.94259L42.5671 2.45157L42.5671 17.5665Z" stroke="#245902" stroke-width="2.62171"/>
<path d="M43.356 24.3988L20.2172 24.3988M20.2172 24.3988L13.9171 26.3328M20.2172 24.3988L15.2916 22.6798" stroke="#245902" stroke-width="2.62171" stroke-linecap="round"/>
<line x1="3.79077" y1="76.1702" x2="63.7909" y2="76.1702" stroke="#245902" stroke-width="6" stroke-linecap="round"/>
</svg>
