<svg width="67" height="80" viewBox="0 0 67 80" fill="none" xmlns="http://www.w3.org/2000/svg">
<path d="M49.6148 66.6571C51.0139 65.8197 54.3123 62.4403 54.5266 59.5693C54.741 56.6983 46.7867 35.2556 43.0061 24.3996" stroke="#245902" stroke-width="2.62171" stroke-linecap="round"/>
<path d="M18.1499 66.6571C16.7507 65.8197 13.4524 62.4403 13.238 59.5693C13.0237 56.6983 20.9779 35.2556 24.7585 24.3996" stroke="#245902" stroke-width="2.62171" stroke-linecap="round"/>
<path d="M42.2722 66.6571C43.3009 65.8268 45.7261 62.4758 45.8837 59.629C46.0413 56.7822 40.9839 35.1642 38.2041 24.3996" stroke="#245902" stroke-width="2.62171" stroke-linecap="round"/>
<path d="M25.4925 66.6571C24.4637 65.8268 22.0386 62.4758 21.881 59.629C21.7234 56.7822 26.7808 35.1642 29.5606 24.3996" stroke="#245902" stroke-width="2.62171" stroke-linecap="round"/>
<path d="M36.9838 66.6571C37.6041 65.8197 39.0664 62.4403 39.1614 59.5693C39.2565 56.6983 36.9989 35.2556 35.3228 24.3996" stroke="#245902" stroke-width="2.62171" stroke-linecap="round"/>
<path d="M30.7808 66.6571C30.1605 65.8197 28.6982 62.4403 28.6032 59.5693C28.5082 56.6983 30.7658 35.2556 32.4419 24.3996" stroke="#245902" stroke-width="2.62171" stroke-linecap="round"/>
<path d="M44.2035 19.0483L43.9326 23.5177L23.1929 23.5177L22.9221 19.0483L44.2035 19.0483Z" stroke="#245902" stroke-width="2.62171"/>
<path d="M42.6586 17.5665L24.1516 17.5665L24.1516 2.45021L33.3002 1.94259L42.6586 2.45157L42.6586 17.5665Z" stroke="#245902" stroke-width="2.62171"/>
<path d="M43.4475 24.3988L20.3088 24.3988M20.3088 24.3988L14.0086 26.3328M20.3088 24.3988L15.3832 22.6798" stroke="#245902" stroke-width="2.62171" stroke-linecap="round"/>
<rect x="10.0315" y="35.9477" width="46.9556" height="43.2225" fill="#F9F6F4"/>
<line x1="3.88232" y1="38.9326" x2="63.8824" y2="38.9326" stroke="#245902" stroke-width="6" stroke-linecap="round"/>
<line x1="3.88232" y1="57.5515" x2="63.8824" y2="57.5515" stroke="#245902" stroke-width="6" stroke-linecap="round"/>
<line x1="3.88232" y1="76.1702" x2="63.8824" y2="76.1702" stroke="#245902" stroke-width="6" stroke-linecap="round"/>
</svg>
