<?xml version="1.0" encoding="UTF-8"?>
<svg id="b" data-name="Layer 2" xmlns="http://www.w3.org/2000/svg" width="672.41" height="207.73" xmlns:xlink="http://www.w3.org/1999/xlink" viewBox="0 0 672.41 207.73">
  <defs>
    <style>
      .f {
        fill: url(#e);
      }

      .g {
        fill: url(#d);
      }

      .h {
        fill: none;
        stroke: #a67c52;
        stroke-width: 2.09px;
      }
    </style>
    <linearGradient id="d" x1="-118.27" y1="-9.26" x2="-672.98" y2="481.89" gradientTransform="translate(-134.65 25.61) rotate(155.79) scale(1 -1)" gradientUnits="userSpaceOnUse">
      <stop offset=".01" stop-color="#c69c6d"/>
      <stop offset=".26" stop-color="#d0ab81"/>
      <stop offset=".69" stop-color="#e0c3a2"/>
      <stop offset=".93" stop-color="#e6ccaf"/>
    </linearGradient>
    <linearGradient id="e" x1="-766.88" y1="320.01" x2="-740.09" y2="463.54" gradientTransform="translate(-53.46 -34.54) rotate(159.67) scale(.75 -1.03)" gradientUnits="userSpaceOnUse">
      <stop offset="0" stop-color="#73ba4f"/>
      <stop offset=".26" stop-color="#70b64c"/>
      <stop offset=".45" stop-color="#68ad45"/>
      <stop offset=".62" stop-color="#5b9d38"/>
      <stop offset=".78" stop-color="#488626"/>
      <stop offset=".93" stop-color="#31690e"/>
      <stop offset="1" stop-color="#245902"/>
    </linearGradient>
  </defs>
  <g id="c" data-name="Layer 3">
    <g>
      <g>
        <path class="g" d="M3.97,1.08C.53,2.82.21,8.38,2.54,10.17s351.76,118.84,351.76,118.84l26.72,11.25,75.85,28.65,51.17,17.54,32.16,11.14s11.38,5.18,23.31,6.85c11.93,1.67,11.17,3.59,34.66.92s38.09-13.94,41.52-18.09,37.73-39.41,30.74-50.74-57.65,34.19-57.65,34.19c0,0-9.61,5.7-27.66,6.58-18.04.88-175.08-52.02-175.08-52.02l-39.03-14.53-10.71-3.71-1.33-1.98-167.4-49.93S7.41-.65,3.97,1.08Z"/>
        <path class="h" d="M3.97,1.08C.53,2.82.21,8.38,2.54,10.17s351.76,118.84,351.76,118.84l26.72,11.25,75.85,28.65,51.17,17.54,32.16,11.14s11.38,5.18,23.31,6.85c11.93,1.67,11.17,3.59,34.66.92s38.09-13.94,41.52-18.09,37.73-39.41,30.74-50.74-57.65,34.19-57.65,34.19c0,0-9.61,5.7-27.66,6.58-18.04.88-175.08-52.02-175.08-52.02l-39.03-14.53-10.71-3.71-1.33-1.98-167.4-49.93S7.41-.65,3.97,1.08Z"/>
      </g>
      <path class="f" d="M601.46,119.19c-6.55,2.34-11.18,7.69-13.42,14.86-5.32,17.05-5.15,29.87-8.91,48.14-.4,1.94,10.28,2.88,24.87.71,15.15-2.25,59.61-18.53,53.67-27.27-10.69-15.72-37.51-43.13-56.22-36.44Z"/>
    </g>
  </g>
</svg>