<?xml version="1.0" encoding="UTF-8"?><svg id="Layer_2" xmlns="http://www.w3.org/2000/svg" xmlns:xlink="http://www.w3.org/1999/xlink" viewBox="0 0 203.49 133.3"><defs><style>.cls-1{fill:url(#linear-gradient-4);}.cls-2{fill:url(#linear-gradient-3);}.cls-3{fill:url(#linear-gradient-2);}.cls-4{fill:url(#linear-gradient);}.cls-5{fill:#f9f6f4;}.cls-6{fill:#245902;}</style><linearGradient id="linear-gradient" x1="8.72" y1="25.41" x2="191.87" y2="25.41" gradientUnits="userSpaceOnUse"><stop offset="0" stop-color="#f9f6f4"/><stop offset=".08" stop-color="#e5eddc"/><stop offset=".26" stop-color="#b3d79e"/><stop offset=".47" stop-color="#73ba4f"/></linearGradient><linearGradient id="linear-gradient-2" x1="912.7" y1="40.69" x2="971.95" y2="40.69" gradientTransform="translate(901.36 9.12) rotate(-178.64) scale(.82 -1) skewX(-3.97)" gradientUnits="userSpaceOnUse"><stop offset="0" stop-color="#f9f6f4"/><stop offset=".1" stop-color="#e5eddc"/><stop offset=".33" stop-color="#b3d79e"/><stop offset=".59" stop-color="#73ba4f"/></linearGradient><linearGradient id="linear-gradient-3" x1="81.23" y1="112.43" x2="129.12" y2="61.17" gradientTransform="translate(65.51 -69.23) rotate(13.92) scale(.84 .79) skewX(21.71)" gradientUnits="userSpaceOnUse"><stop offset="0" stop-color="#f9f6f4"/><stop offset=".13" stop-color="#e5eddc"/><stop offset=".42" stop-color="#b3d79e"/><stop offset=".75" stop-color="#73ba4f"/></linearGradient><linearGradient id="linear-gradient-4" x1="206.36" y1="-3.09" x2="199.2" y2="7.22" gradientUnits="userSpaceOnUse"><stop offset="0" stop-color="#f9f6f4"/><stop offset=".22" stop-color="#dae8ce"/><stop offset=".72" stop-color="#8fc671"/><stop offset=".9" stop-color="#73ba4f"/></linearGradient></defs><g id="Layer_1-2"><path class="cls-6" d="M173.17,33.34s-2.18,51.21-16.95,71.23-26.17,22.48-26.17,22.48c0,0-16.82,6.28-47.01,6.26-27.47-.02-29.55-1.62-39.66-5.17s-27.9-13.31-34.64-42.02S1.68,47.23,0,33.34"/><ellipse class="cls-6" cx="86.59" cy="33.34" rx="86.59" ry="20.3"/><ellipse class="cls-5" cx="86.59" cy="33.14" rx="77.86" ry="14.09"/><path class="cls-4" d="M188.91,3.68c6.76,2.25,11.75,45.26-102.32,43.56-46.98-.7-77.47-6.75-77.86-14.09-.5-9.59,30.84-22.64,77.86-6.58C177.38,57.56,179.28.47,188.91,3.68Z"/><path class="cls-3" d="M142.7,35.12c8.45-1.35,12.91-6.4,10.47-8.23-2.38-1.79-9.67.12-15.7,2.37-25.27,9.43-33.65,3.74-31.75,4.85,2.15,1.25,14.97,4.53,36.98,1.02Z"/><path class="cls-2" d="M171.25,23.13c4.27-3.75,4.07-9.27,1.57-10-2.44-.72-5.7,3.13-8.02,6.85-9.72,15.62-17.94,13.6-16.18,13.91,1.99.35,11.49-.99,22.62-10.76Z"/><path class="cls-1" d="M203.13,7.85c-.61,1.89-2.67,2.91-4.6,2.28s-3-2.66-2.39-4.54,3.72-6.16,5.65-5.53,1.94,5.91,1.33,7.79Z"/></g></svg>